<svg width="232" height="57" viewBox="0 0 232 57" fill="none" xmlns="http://www.w3.org/2000/svg">
<g clip-path="url(#clip0_30_6972)">
<path d="M11.0416 31.3025V40.8025L26.4999 49.875L41.9583 40.8025V31.3025L26.4999 40.375L11.0416 31.3025ZM26.4999 7.125L2.20825 21.375L26.4999 35.625L46.3749 23.9638V40.375H50.7916V21.375L26.4999 7.125Z" fill="#EA4335"/>
</g>
<path d="M67.92 43.44C65.92 43.44 64.1467 43.1867 62.6 42.68C61.08 42.1467 59.8 41.3733 58.76 40.36C57.72 39.3467 56.9333 38.08 56.4 36.56C55.8933 35.0133 55.64 33.2267 55.64 31.2V17.6C55.64 16.56 55.9067 15.7733 56.44 15.24C56.9733 14.7067 57.7467 14.44 58.76 14.44C59.7467 14.44 60.5067 14.7067 61.04 15.24C61.5733 15.7733 61.84 16.56 61.84 17.6V31.24C61.84 33.5333 62.36 35.2667 63.4 36.44C64.44 37.5867 65.9467 38.16 67.92 38.16C69.8933 38.16 71.3867 37.5867 72.4 36.44C73.44 35.2667 73.96 33.5333 73.96 31.24V17.6C73.96 16.56 74.2267 15.7733 74.76 15.24C75.2933 14.7067 76.0533 14.44 77.04 14.44C78.0267 14.44 78.7733 14.7067 79.28 15.24C79.8133 15.7733 80.08 16.56 80.08 17.6V31.2C80.08 33.8933 79.6133 36.16 78.68 38C77.7733 39.8133 76.4133 41.1733 74.6 42.08C72.8133 42.9867 70.5867 43.44 67.92 43.44ZM88.0866 43.36C87.0999 43.36 86.3399 43.0933 85.8066 42.56C85.2999 42.0267 85.0466 41.2667 85.0466 40.28V26.08C85.0466 25.0933 85.2999 24.3467 85.8066 23.84C86.3399 23.3067 87.0732 23.04 88.0066 23.04C88.9666 23.04 89.6999 23.3067 90.2066 23.84C90.7132 24.3467 90.9666 25.0933 90.9666 26.08V28.36L90.5266 27.04C91.1399 25.7333 92.0466 24.7333 93.2466 24.04C94.4732 23.32 95.8599 22.96 97.4066 22.96C98.9799 22.96 100.273 23.2667 101.287 23.88C102.3 24.4667 103.06 25.3733 103.567 26.6C104.073 27.8 104.327 29.3333 104.327 31.2V40.28C104.327 41.2667 104.06 42.0267 103.527 42.56C103.02 43.0933 102.273 43.36 101.287 43.36C100.327 43.36 99.5799 43.0933 99.0466 42.56C98.5399 42.0267 98.2866 41.2667 98.2866 40.28V31.48C98.2866 30.12 98.0332 29.1467 97.5266 28.56C97.0466 27.9467 96.2999 27.64 95.2866 27.64C94.0066 27.64 92.9799 28.04 92.2066 28.84C91.4599 29.64 91.0866 30.7067 91.0866 32.04V40.28C91.0866 42.3333 90.0866 43.36 88.0866 43.36ZM111.876 43.32C110.889 43.32 110.129 43.04 109.596 42.48C109.089 41.8933 108.836 41.08 108.836 40.04V26.36C108.836 25.2933 109.089 24.48 109.596 23.92C110.129 23.3333 110.889 23.04 111.876 23.04C112.836 23.04 113.569 23.3333 114.076 23.92C114.609 24.48 114.876 25.2933 114.876 26.36V40.04C114.876 41.08 114.622 41.8933 114.116 42.48C113.609 43.04 112.862 43.32 111.876 43.32ZM111.876 19.76C110.756 19.76 109.889 19.5067 109.276 19C108.689 18.4667 108.396 17.72 108.396 16.76C108.396 15.7733 108.689 15.0267 109.276 14.52C109.889 13.9867 110.756 13.72 111.876 13.72C112.996 13.72 113.849 13.9867 114.436 14.52C115.022 15.0267 115.316 15.7733 115.316 16.76C115.316 17.72 115.022 18.4667 114.436 19C113.849 19.5067 112.996 19.76 111.876 19.76ZM130.139 43.44C129.019 43.44 127.872 43.3467 126.699 43.16C125.552 43 124.445 42.76 123.379 42.44C122.339 42.12 121.405 41.72 120.579 41.24C119.992 40.92 119.579 40.5067 119.339 40C119.099 39.4667 119.005 38.9333 119.059 38.4C119.139 37.8667 119.339 37.4 119.659 37C120.005 36.5733 120.432 36.3067 120.939 36.2C121.472 36.0667 122.059 36.16 122.699 36.48C123.792 37.0933 124.979 37.5467 126.259 37.84C127.565 38.1333 128.859 38.28 130.139 38.28C132.085 38.28 133.472 37.9867 134.299 37.4C135.125 36.7867 135.539 36.0267 135.539 35.12C135.539 34.3467 135.245 33.7333 134.659 33.28C134.072 32.8267 133.045 32.44 131.579 32.12L127.059 31.16C124.499 30.6267 122.592 29.72 121.339 28.44C120.112 27.1333 119.499 25.4267 119.499 23.32C119.499 21.9867 119.779 20.7733 120.339 19.68C120.899 18.5867 121.685 17.64 122.699 16.84C123.712 16.04 124.912 15.4267 126.299 15C127.712 14.5733 129.259 14.36 130.939 14.36C132.432 14.36 133.899 14.5467 135.339 14.92C136.779 15.2667 138.045 15.7867 139.139 16.48C139.672 16.8 140.032 17.2133 140.219 17.72C140.432 18.2 140.499 18.6933 140.419 19.2C140.365 19.68 140.165 20.1067 139.819 20.48C139.499 20.8533 139.085 21.0933 138.579 21.2C138.072 21.3067 137.459 21.1867 136.739 20.84C135.859 20.3867 134.925 20.0533 133.939 19.84C132.952 19.6267 131.939 19.52 130.899 19.52C129.779 19.52 128.819 19.6667 128.019 19.96C127.245 20.2533 126.645 20.6667 126.219 21.2C125.819 21.7333 125.619 22.3467 125.619 23.04C125.619 23.8133 125.899 24.44 126.459 24.92C127.019 25.4 127.992 25.7867 129.379 26.08L133.899 27.04C136.512 27.6 138.459 28.5067 139.739 29.76C141.019 30.9867 141.659 32.6133 141.659 34.64C141.659 35.9733 141.392 37.1867 140.859 38.28C140.325 39.3467 139.552 40.2667 138.539 41.04C137.525 41.8133 136.312 42.4133 134.899 42.84C133.485 43.24 131.899 43.44 130.139 43.44ZM154.604 43.44C152.497 43.44 150.657 43.0267 149.084 42.2C147.537 41.3733 146.337 40.1867 145.484 38.64C144.63 37.0933 144.204 35.2667 144.204 33.16C144.204 31.5867 144.444 30.1733 144.924 28.92C145.404 27.6667 146.097 26.6 147.004 25.72C147.937 24.8133 149.044 24.1333 150.324 23.68C151.604 23.2 153.03 22.96 154.604 22.96C156.71 22.96 158.537 23.3733 160.084 24.2C161.657 25.0267 162.87 26.2 163.724 27.72C164.604 29.24 165.044 31.0533 165.044 33.16C165.044 34.76 164.79 36.1867 164.284 37.44C163.804 38.6933 163.11 39.7733 162.204 40.68C161.297 41.5867 160.19 42.28 158.884 42.76C157.604 43.2133 156.177 43.44 154.604 43.44ZM154.604 38.92C155.484 38.92 156.244 38.7067 156.884 38.28C157.524 37.8533 158.03 37.2267 158.404 36.4C158.777 35.5467 158.964 34.4667 158.964 33.16C158.964 31.2133 158.564 29.7867 157.764 28.88C156.964 27.9467 155.91 27.48 154.604 27.48C153.75 27.48 152.99 27.68 152.324 28.08C151.684 28.48 151.177 29.1067 150.804 29.96C150.457 30.7867 150.284 31.8533 150.284 33.16C150.284 35.1067 150.684 36.56 151.484 37.52C152.284 38.4533 153.324 38.92 154.604 38.92ZM178.278 43.44C176.145 43.44 174.278 43.0267 172.678 42.2C171.105 41.3467 169.892 40.1467 169.038 38.6C168.185 37.0533 167.758 35.2267 167.758 33.12C167.758 31.5467 167.998 30.1333 168.478 28.88C168.958 27.6267 169.652 26.56 170.558 25.68C171.492 24.8 172.612 24.1333 173.918 23.68C175.225 23.2 176.678 22.96 178.278 22.96C179.105 22.96 179.985 23.0667 180.918 23.28C181.852 23.4667 182.772 23.8 183.678 24.28C184.212 24.52 184.572 24.8667 184.758 25.32C184.972 25.7467 185.052 26.2 184.998 26.68C184.945 27.1333 184.772 27.5467 184.478 27.92C184.212 28.2667 183.865 28.5067 183.438 28.64C183.012 28.7467 182.532 28.6667 181.998 28.4C181.492 28.1067 180.958 27.8933 180.398 27.76C179.865 27.6267 179.358 27.56 178.878 27.56C178.078 27.56 177.372 27.6933 176.758 27.96C176.145 28.2 175.625 28.56 175.198 29.04C174.798 29.4933 174.478 30.0667 174.238 30.76C174.025 31.4533 173.918 32.2533 173.918 33.16C173.918 34.92 174.345 36.3067 175.198 37.32C176.078 38.3067 177.305 38.8 178.878 38.8C179.358 38.8 179.865 38.7467 180.398 38.64C180.932 38.5067 181.465 38.2933 181.998 38C182.532 37.7333 183.012 37.6667 183.438 37.8C183.865 37.9333 184.198 38.1867 184.438 38.56C184.705 38.9067 184.852 39.32 184.878 39.8C184.932 40.2533 184.852 40.7067 184.638 41.16C184.452 41.5867 184.105 41.92 183.598 42.16C182.692 42.6133 181.785 42.9333 180.878 43.12C179.972 43.3333 179.105 43.44 178.278 43.44ZM190.86 43.32C189.873 43.32 189.113 43.04 188.58 42.48C188.073 41.8933 187.82 41.08 187.82 40.04V26.36C187.82 25.2933 188.073 24.48 188.58 23.92C189.113 23.3333 189.873 23.04 190.86 23.04C191.82 23.04 192.553 23.3333 193.06 23.92C193.593 24.48 193.86 25.2933 193.86 26.36V40.04C193.86 41.08 193.607 41.8933 193.1 42.48C192.593 43.04 191.847 43.32 190.86 43.32ZM190.86 19.76C189.74 19.76 188.873 19.5067 188.26 19C187.673 18.4667 187.38 17.72 187.38 16.76C187.38 15.7733 187.673 15.0267 188.26 14.52C188.873 13.9867 189.74 13.72 190.86 13.72C191.98 13.72 192.833 13.9867 193.42 14.52C194.007 15.0267 194.3 15.7733 194.3 16.76C194.3 17.72 194.007 18.4667 193.42 19C192.833 19.5067 191.98 19.76 190.86 19.76ZM205.163 43.44C203.723 43.44 202.43 43.16 201.283 42.6C200.136 42.04 199.243 41.28 198.603 40.32C197.963 39.36 197.643 38.28 197.643 37.08C197.643 35.64 198.016 34.5067 198.763 33.68C199.51 32.8267 200.723 32.2267 202.403 31.88C204.083 31.5067 206.31 31.32 209.083 31.32H211.203V34.44H209.123C207.763 34.44 206.656 34.52 205.803 34.68C204.976 34.8133 204.376 35.0533 204.003 35.4C203.656 35.7467 203.483 36.2267 203.483 36.84C203.483 37.5867 203.736 38.2 204.243 38.68C204.776 39.16 205.536 39.4 206.523 39.4C207.296 39.4 207.976 39.2267 208.563 38.88C209.176 38.5067 209.656 38.0133 210.003 37.4C210.35 36.76 210.523 36.04 210.523 35.24V30.64C210.523 29.4667 210.256 28.64 209.723 28.16C209.19 27.6533 208.283 27.4 207.003 27.4C206.283 27.4 205.496 27.4933 204.643 27.68C203.816 27.84 202.896 28.12 201.883 28.52C201.296 28.7867 200.776 28.8533 200.323 28.72C199.87 28.56 199.523 28.2933 199.283 27.92C199.043 27.52 198.923 27.0933 198.923 26.64C198.923 26.16 199.056 25.7067 199.323 25.28C199.59 24.8267 200.03 24.4933 200.643 24.28C201.896 23.7733 203.07 23.4267 204.163 23.24C205.283 23.0533 206.31 22.96 207.243 22.96C209.296 22.96 210.976 23.2667 212.283 23.88C213.616 24.4667 214.616 25.3867 215.283 26.64C215.95 27.8667 216.283 29.4533 216.283 31.4V40.28C216.283 41.2667 216.043 42.0267 215.563 42.56C215.083 43.0933 214.39 43.36 213.483 43.36C212.576 43.36 211.87 43.0933 211.363 42.56C210.883 42.0267 210.643 41.2667 210.643 40.28V38.8L210.923 39.04C210.763 39.9467 210.416 40.7333 209.883 41.4C209.376 42.04 208.723 42.5467 207.923 42.92C207.123 43.2667 206.203 43.44 205.163 43.44ZM227.869 43.44C225.495 43.44 223.722 42.7867 222.549 41.48C221.375 40.1467 220.789 38.1733 220.789 35.56V17.52C220.789 16.5067 221.042 15.7467 221.549 15.24C222.082 14.7067 222.842 14.44 223.829 14.44C224.789 14.44 225.522 14.7067 226.029 15.24C226.562 15.7467 226.829 16.5067 226.829 17.52V35.32C226.829 36.4133 227.055 37.2267 227.509 37.76C227.989 38.2667 228.615 38.52 229.389 38.52C229.602 38.52 229.802 38.5067 229.989 38.48C230.175 38.4533 230.375 38.44 230.589 38.44C231.015 38.3867 231.309 38.52 231.469 38.84C231.655 39.1333 231.749 39.7333 231.749 40.64C231.749 41.44 231.589 42.0533 231.269 42.48C230.949 42.88 230.455 43.1467 229.789 43.28C229.522 43.3067 229.215 43.3333 228.869 43.36C228.522 43.4133 228.189 43.44 227.869 43.44Z" fill="#EA4335"/>
<defs>
<clipPath id="clip0_30_6972">
<rect width="53" height="57" fill="white"/>
</clipPath>
</defs>
</svg>
